Coordinates
version=1
nRows=10
nColumns=40
inDegrees=yes

Units are S.I. units (second, meters, Newtons, ...)
If the header above contains a line with 'inDegrees', this indicates whether rotational values are in degrees (yes) or radians (no).

endheader
time	pelvis_tilt	pelvis_list	pelvis_rotation	pelvis_tx	pelvis_ty	pelvis_tz	hip_flexion_r	hip_adduction_r	hip_rotation_r	knee_angle_r	knee_angle_r_beta	ankle_angle_r	subtalar_angle_r	mtp_angle_r	hip_flexion_l	hip_adduction_l	hip_rotation_l	knee_angle_l	knee_angle_l_beta	ankle_angle_l	subtalar_angle_l	mtp_angle_l	lumbar_extension	lumbar_bending	lumbar_rotation	arm_flex_r	arm_add_r	arm_rot_r	elbow_flex_r	pro_sup_r	wrist_flex_r	wrist_dev_r	arm_flex_l	arm_add_l	arm_rot_l	elbow_flex_l	pro_sup_l	wrist_flex_l	wrist_dev_l
      5.47000000	     36.00821791	      4.08484146	   -177.43994884	      0.40236171	      0.69440837	     -0.58610199	     86.56495283	    -16.43284452	     -0.67367943	     59.03515671	      1.03035786	     11.64800214	      0.00000000	      0.00000000	     90.08364035	    -13.04364229	      7.48128588	     61.10414076	      1.06646844	     11.49690364	      0.00000000	      0.00000000	    -48.72254776	      1.46667018	     18.10699159	    -89.58124000	   -119.84799161	    -67.37810545	     58.14514163	     41.46525002	      0.00000000	      0.00000000	     71.93187598	      9.69854515	     26.14070865	     12.52619188	     23.33799517	      0.00000000	      0.00000000
      5.47500000	     40.09716436	     -0.15868643	   -178.91894091	      0.40274248	      0.68772782	     -0.59412467	     92.60525855	    -14.20570655	      5.95828159	     59.49665461	      1.03841252	     11.25753449	      0.00000000	      0.00000000	     92.48533129	    -14.81087060	      2.42776649	     60.55436410	      1.05687303	     11.33838933	      0.00000000	      0.00000000	    -43.46691289	     -3.12858790	      4.45796281	     62.83953184	    -27.14729218	     46.46958168	     26.91818088	     67.65709540	      0.00000000	      0.00000000	     69.88485393	     -0.57616103	      8.83111898	     13.61921733	     22.74870638	      0.00000000	      0.00000000
      5.48000000	     40.23722363	     -0.16935035	   -178.89836288	      0.40264173	      0.68857365	     -0.59370042	     92.57639652	    -14.26821390	      5.92865681	     59.23909005	      1.03391717	     11.20940562	      0.00000000	      0.00000000	     92.43816801	    -14.73258320	      2.37521489	     60.29297440	      1.05231092	     11.32594896	      0.00000000	      0.00000000	    -43.46222936	     -3.07226958	      4.41676799	     62.88194257	    -27.13887466	     46.45255622	     26.93309860	     67.64264292	      0.00000000	      0.00000000	     69.90655716	     -0.58784513	      8.80197263	     13.64183028	     22.73131108	      0.00000000	      0.00000000
      5.48500000	     40.36277868	     -0.18973991	   -178.85066898	      0.40252393	      0.68937803	     -0.59323332	     92.56475498	    -14.35335403	      5.87416188	     59.04728882	      1.03056960	     11.17166058	      0.00000000	      0.00000000	     92.40971729	    -14.63040033	      2.32115169	     60.11284561	      1.04916708	     11.30461647	      0.00000000	      0.00000000	    -43.47035344	     -3.00659990	      4.36425733	     62.94139293	    -27.15993363	     46.43222627	     26.95843070	     67.63367659	      0.00000000	      0.00000000	     69.93048564	     -0.57926848	      8.78580344	     13.66529995	     22.72421681	      0.00000000	      0.00000000
      5.49000000	     40.49685953	     -0.18277452	   -178.85331559	      0.40245095	      0.69035833	     -0.59287352	     92.46781976	    -14.34002979	      5.89674195	     58.67134974	      1.02400823	     11.08060601	      0.00000000	      0.00000000	     92.33168596	    -14.57844302	      2.29929638	     59.77496036	      1.04326987	     11.25176319	      0.00000000	      0.00000000	    -43.48600020	     -2.96192288	      4.34405160	     63.00776918	    -27.17177784	     46.40338319	     27.00643866	     67.62021741	      0.00000000	      0.00000000	     69.95032460	     -0.59146970	      8.74037483	     13.70511677	     22.71302829	      0.00000000	      0.00000000
      5.49500000	     40.55630505	     -0.18729671	   -178.73000330	      0.40236230	      0.69095776	     -0.59230429	     92.45258296	    -14.49196854	      5.92840421	     58.66303951	      1.02386319	     11.07962428	      0.00000000	      0.00000000	     92.33942065	    -14.40916812	      2.25267196	     59.75496016	      1.04292080	     11.24488988	      0.00000000	      0.00000000	    -43.52410729	     -2.82727111	      4.26923316	     62.98709541	    -27.20237241	     46.40060724	     26.99447255	     67.61917386	      0.00000000	      0.00000000	     69.96572138	     -0.56651343	      8.74337694	     13.71599323	     22.71326654	      0.00000000	      0.00000000
      5.50000000	     40.75253274	     -0.19224668	   -178.81936042	      0.40218738	      0.69215197	     -0.59209775	     92.37038240	    -14.44313550	      5.76012898	     58.14007568	      1.01473575	     10.95169318	      0.00000000	      0.00000000	     92.22976075	    -14.47054051	      2.14797453	     59.28141412	      1.03465586	     11.16979328	      0.00000000	      0.00000000	    -43.51919483	     -2.85268786	      4.29812979	     63.11757889	    -27.20460586	     46.35089918	     27.07574538	     67.60705004	      0.00000000	      0.00000000	     70.01311303	     -0.59286094	      8.69109933	     13.76298030	     22.70307190	      0.00000000	      0.00000000
      5.50500000	     40.81041659	     -0.19763214	   -178.71334080	      0.40212059	      0.69276941	     -0.59148988	     92.36155857	    -14.58414146	      5.79628059	     58.11569028	      1.01431014	     10.94539794	      0.00000000	      0.00000000	     92.22194565	    -14.31191059	      2.11769004	     59.25839593	      1.03425412	     11.15842239	      0.00000000	      0.00000000	    -43.56245219	     -2.73278509	      4.22206089	     63.10482659	    -27.23800640	     46.34505033	     27.06566434	     67.60549069	      0.00000000	      0.00000000	     70.02391079	     -0.56512163	      8.69241388	     13.77324680	     22.70304660	      0.00000000	      0.00000000
      5.51000000	     40.99361590	     -0.21495564	   -178.82864400	      0.40211490	      0.69410576	     -0.59137874	     92.16431186	    -14.41853279	      5.80466170	     57.40045286	      1.00182689	     10.70723814	      0.00000000	      0.00000000	     92.06291693	    -14.36263984	      2.09359115	     58.68148016	      1.02418504	     10.98899705	      0.00000000	      0.00000000	    -43.57973234	     -2.80112274	      4.27151595	     63.23713441	    -27.24724695	     46.27634304	     27.15815250	     67.58636408	      0.00000000	      0.00000000	     70.09117401	     -0.57882398	      8.61037581	     13.84111347	     22.68924060	      0.00000000	      0.00000000
      5.51500000	     41.05513202	     -0.21377755	   -178.71327437	      0.40206184	      0.69474380	     -0.59080106	     92.15647723	    -14.56524146	      5.82750900	     57.38582052	      1.00157151	     10.70172826	      0.00000000	      0.00000000	     92.06788368	    -14.21227096	      2.04299063	     58.65871045	      1.02378763	     10.97847213	      0.00000000	      0.00000000	    -43.62113262	     -2.67346628	      4.19077744	     63.22584089	    -27.27765001	     46.27117319	     27.14685106	     67.58485761	      0.00000000	      0.00000000	     70.12236422	     -0.53864741	      8.61452223	     13.86321919	     22.69026315	      0.00000000	      0.00000000
